<svg id="Layer_1" data-name="Layer 1" xmlns="http://www.w3.org/2000/svg" viewBox="0 0 545.17 545.19"><defs><style>.cls-1,.cls-2{fill:#fff;}.cls-2{stroke:#fff;stroke-miterlimit:10;}</style></defs><title>logo</title><path class="cls-1" d="M74.29,362.57l26.87,2s2.58-.27,2.58-7.89c0,0,1.65,0,1.65-5V323.22s0.3-1.85-22-20.55a5.79,5.79,0,0,0-6.32.53c-3.34,2.4-25.2-1.23-25.2-1.23l-32.44-1.31L2.72,323.51S6.39,407.89,4.3,427.78c0,0,18.5,14.91,16.41,18.91H88.06S94,431.34,99.24,430.3c0,0-.73-9.77-2.22-27.16,0,0,.37-2.07,8.37-0.84V380.75s-36.64-.74-47.1,1.7c0,0-1.4,21.33.09,22.83,0,0,8.61-2,10-1.49,0,0,3,1.9.84,15.08,0,0-14,4.35-25.53,0l0.28-72.42L50.87,338l19.7,1.9s4.35,3.53,3.4,7.2S74.29,362.57,74.29,362.57Z"/><path class="cls-1" d="M194.08,359.36L180.9,345.5c-11,1.49-41.85-1.9-41.85-1.9-3.53,8.42-17,15.76-17,15.76,0.94,36-6.27,69-6.27,69l12.81,18.79c9.07-5.93,53.36,3.26,52.29,1.84s13.19-17.79,13.19-17.79C188.59,404.86,194.08,359.36,194.08,359.36Zm-36,61.14c-9.24,1.22-12.77-1.22-12.77-1.22s-2.85-20.24.54-25.41,0.54-12.64,4.62-22.15c0,0,14.54-2.17,15.22,0s1,41.3,3.26,45.11C168.94,416.83,167.31,419.27,158.07,420.5Z"/><path class="cls-1" d="M276.46,359.36L263.28,345.5c-11,1.49-41.85-1.9-41.85-1.9-3.53,8.42-17,15.76-17,15.76,0.94,36-6.27,69-6.27,69L211,447.13c10.81-4.39,53.36,3.26,52.29,1.84s13.19-17.79,13.19-17.79C271,404.86,276.46,359.36,276.46,359.36Zm-36,61.14c-9.24,1.22-12.77-1.22-12.77-1.22s-0.92-19.82.54-25.41a145.29,145.29,0,0,0,4.62-22.15s14.54-2.17,15.22,0,1,41.3,3.26,45.11C251.32,416.83,249.69,419.27,240.45,420.5Z"/><path class="cls-1" d="M287.19,444.69H316l-1.5-48h3.71l20.23,47.11v2.89h26.24s-3.58-60.55-1.26-63.57,0.71-37.76,3.73-39.63-27.57.05-27.57,0.05,3.91,52.4-.71,46.88-22.77-40.88-21-46.84L286,345.27s4.27,81.35,2.67,85.62S287.19,444.69,287.19,444.69Z"/><path class="cls-1" d="M380.39,371.69h24.06s-1.07,48.89,1.77,56.36c0,0,1.38,15,1,18.19s-26.86,2.19-26.86,2.19V371.69Z"/><path class="cls-1" d="M452.83,405.57c-5.16-.18-3.38,4.69-3.38,4.69,4.09,2.19,2,8.49,2,8.49l-18.67,1.62s-2.31-20.41,1.07-20.59,29-12.72,29.52-13.79,1.07-24.84,1.07-24.84l-9.78-13.46H429.35l-16.72,9.91,1.42,77,14.58,11.19,27.75-1.43,8-6.94-0.71-35.75S458,405.75,452.83,405.57Zm-18-42.69c4.8-4.45,12.63-2.49,12.63-2.49,0,2.49,3.91,17.79,3.91,17.79L434.86,384C431.66,386.54,430.06,367.33,434.86,362.88Z"/><path class="cls-1" d="M474.9,354.84s6.21-7.15,8.88-7.3,26-1.92,40.72-2.27c0,0,7.11,6.09,15.11,7.51,0,0,3.91,22.92,2.13,29.92H512.87l0.43-14.61s0.18-5.09-6.4-3.13c0,0-1.42.21-1.6,6.08s-0.18,15.49-.18,15.49,35,8,35.75,10.13,1.35,40.21,1.35,40.21l-17,8.9L488,447.12l-15.65-10.43v-25l31,0.78,0.52,13.87s2.22,5.69,7.73.53l-1.38-21.16-33.77-9.55Z"/><path class="cls-1" d="M104.21,294.69h8a0.57,0.57,0,0,1,.41,0c0.6,0.52,2,3,2.26,15,0.27,13.14.08,23.08,0,25.75,0,0.37.29,0.24,0.67,0.24h16c0.38,0,.69.08,0.66-0.3L130,296.48s1-1.78,2.33-1.63c1.13,0.13,6.83-.11,8.69-0.21a0.64,0.64,0,0,0,.63-0.6l0.78-12.41a0.9,0.9,0,0,0-.66-0.94H104.21a1.4,1.4,0,0,0-.82,1.16v11.94A1,1,0,0,0,104.21,294.69Z"/><path class="cls-1" d="M150,283.69h17.61a0.45,0.45,0,0,0-.23-0.2v19.78a1,1,0,0,0,.2.06c0.33,0.28,4.8,3.68,6.8-.53V283.49a0.38,0.38,0,0,0,0,.2H192c0.05,0,.09-0.11.09-0.06l-0.17,55c0,0.05,0,0-.09,0H174.44a0.08,0.08,0,0,1-.09-0.09l0.74-20.91s-2.89-6.57-7.59-.1a0.11,0.11,0,0,0,0,.06L167.79,336a1,1,0,0,0-.09-0.31H147.89a1.76,1.76,0,0,0-.09.46l0.85-52.46H150Z"/><path class="cls-1" d="M218.63,318.41c1.26,0.33,1.14,2.07.83,3.42a2.35,2.35,0,0,1-2.11,1.82c-2.54.2-7.39,0.48-9.31-.14-2.08-.67-1.25-7.1-0.78-9.88a2.35,2.35,0,0,1,1.38-1.77l15-6.58a2.37,2.37,0,0,0,1.42-2.12l0.27-13.31a2.37,2.37,0,0,0-.53-1.54l-3.31-3.9a2.24,2.24,0,0,0-1.83-.72H205.86a2.26,2.26,0,0,0-1.32.25l-7.06,4.63a2.28,2.28,0,0,0-1.09,1.89V330.2a2.4,2.4,0,0,0,.85,1.78c2,1.77,7.29,6.18,7.6,5.17s12.33-1.11,16.15-1.1a2.36,2.36,0,0,0,1.88-.92l1.95-2.42a2.45,2.45,0,0,0,.57-1.45V317.33a2.43,2.43,0,0,0-2.75-2.35c-0.8.11-1.73,0.25-2.55,0.44C217.74,316,216.51,317.86,218.63,318.41Zm-1.49-27.75a14.07,14.07,0,0,1,1.76,8.07,2.34,2.34,0,0,1-2,2.08,62.35,62.35,0,0,0-9.06,2.23c-2.33.71,0-10,0-10-0.78-3.54,4.69-3.73,7.3-3.62A2.3,2.3,0,0,1,217.14,290.66Z"/><circle class="cls-1" cx="391.19" cy="355.85" r="1.44"/><circle class="cls-1" cx="385" cy="352.27" r="1.39"/><ellipse class="cls-1" cx="396.71" cy="351.02" rx="1.99" ry="1.25" transform="translate(-117.7 224.64) rotate(-27.7)"/><path class="cls-1" d="M403.41,356.58c-1.83-.59-0.18-2.89-0.18-2.89,3.41-3,1.68-6.55.45-8.32a3.36,3.36,0,0,1-.49-2.38,4.81,4.81,0,0,0-2-4.25,15.32,15.32,0,0,0-14-.39,3.11,3.11,0,0,1-1.75.25c-7.31-1-9.83,1.53-10.62,2.78a3.05,3.05,0,0,0-.4,1.05,27.37,27.37,0,0,0,3.62,19,6.48,6.48,0,0,0,5.33,3.23h5.17c0.2-2,.41-0.31.61-0.33,6-.7,13.42-1.42,12.54-2.77,0.11-1-11-.77-13.46-0.29a0.58,0.58,0,0,1-.31-0.13L383.09,359a4.35,4.35,0,0,1-3-3.84,3,3,0,0,0-.34-1.31c-1.45-2.52-6.53-12.64,5.23-13.15,13.44-.59,13.44,1.24,13.44,1.24s5.33,6.24,3.18,8.44a2.75,2.75,0,0,0-.68,2.1c0.1,1.63.08,4-.8,4.36a1.49,1.49,0,0,0-.6.53c-1.21,1.69-2.14,3.58-.12,4.1l2.23,0.57C404.58,361.54,405.24,357.17,403.41,356.58Z"/><path class="cls-2" d="M90,291.57s-3.7-4.9-12.95-1.71-29.59,0-29.59,0S-4.31,217.22.86,176.9c0,0,19.61,42.84,89.15,106.5"/><path class="cls-2" d="M409.25,328.93S529.47,214.63,544.64,168c0,0-.74,79.16-86.19,166.83,0,0-21.45-1.85-32.92-1.85l-9.62,7.4S414.06,332.63,409.25,328.93Z"/><path class="cls-2" d="M51.17,488.36s9.25-11.47,23.3-6.66,0,25.15,0,25.15S63,508,57.83,504.64s-6.66,7.4-6.66,7.4,8.51,12.95,20,3c0,0,11.84-2.79,7,3.78s-19.61,5.83-19.61,5.83-18.87-.78-20-22C38.6,502.58,44.51,490.21,51.17,488.36Z"/><path class="cls-2" d="M84.46,508.34s0-23.44,15.17-27.81S126.26,478,126.26,478s10,17.71,6.29,24.58S120,506.12,120,506.12,111.1,512,84.46,508.34Z"/><path class="cls-2" d="M132.31,459.19h22.13s6.6,17.52,18.81,21.28c0,0,4.81,2.77,0,13.08s0.37,22.16.37,22.16,5,15.91,20.46,7.4c0,0,22.45-5.18,16.53,14.8,0,0-29.22,14.38-48.46-4.12S130.59,479.19,132.31,459.19Z"/><path class="cls-2" d="M199.88,453.59s3.33,9.93,24.41,5.7c0,0-31.07,17.6-45.87,9.83s2.59-6.78,2.59-6.78Z"/><path class="cls-2" d="M237.32,462.35s8.8-6.17,20.64,3.45-2.88,6.25-10.32,11.82-34.81,14.16-42.21,16l-12.95,4.76s-17.78-3.16,0-17.82c0,0,11.33-7.59,18.13-6.77a10.49,10.49,0,0,0,6.1-.88Z"/><path class="cls-2" d="M266.83,462.35s9.64-1.73,9.63-8.76c0,0-.38,9.5,36.61,4.38,0,0,59.56,23.73,75.83,24.1,0,0,9.62,3.66,7.77,20.51C396.67,502.58,274.6,470.37,266.83,462.35Z"/><path class="cls-2" d="M350.43,460.4s12.95,2,20-1.11c0,0,26.74,5,42.22-1.26,0,0-8.19,14.69-24.1,13.08S350.43,460.4,350.43,460.4Z"/><path class="cls-2" d="M425.15,459.29l24-2.74s1.48,6.66-14.8,18.87c0,0-4.07,42.54-18.13,60.3s-55.86,3.7-55.86,3.7,1.48-15.54,3-16.28,9.62-1.85,15.17,4.07c0,0,26.67,6.29,26.28-20.72,0,0,.29-9.53,2.35-12.9s-13.43-12.25-2.35-19.28A194.86,194.86,0,0,0,425.15,459.29Z"/><path class="cls-2" d="M438.51,488.36s8.54-14.06,10.72-13.69,41.77-4.45,43.24,0,2.22,22.3-10.73,26S437.44,509.82,438.51,488.36Z"/><path class="cls-2" d="M493.26,508s-13.36-3.33-8.18,5.92,13.69,7,13.69,7S504.78,515.32,493.26,508Z"/><path class="cls-2" d="M497.66,491s-1.85,24,15.17,19.61S528.36,491,528.36,491s0.74-22.19-18.13-23.3-12.64,5.13-12.64,5.13,10.42,0.57,6.35,6.6A69,69,0,0,0,497.66,491Z"/><path class="cls-2" d="M367,152.8c-10.57,2.3-11.5-9.16-11.5-9.16s-5.55-30.26,2.72-30.72c7.06-.39,6,20.08,5.59,26.07a1.32,1.32,0,0,0,1.61,1.41c13.32-3.72,24.13-55.23,12.37-79.25-12.27-25.07-39.43-47.26-43.61-50.66S312.49-3.87,251.38,2.4s-76.77,47.79-76.77,47.79c-9.14,8.1-12.34,50.3-12.34,50.3s3.88,16.67,1.78,30.75,8.09,14.08,8.09,14.08l-0.32-40.46,11.81-24.11,1.46-24.92a137.11,137.11,0,0,1,12.63-14.56c7.45-7.44,6.3.81,6.3,0.81-10.36,12.3-12.14,19.42-12.14,19.42l-0.81,22.82c-19.58,23.3-8.74,58.9-8.74,58.9l-3.88,6.47c1.94,7.93-6.47,14.56-6.47,14.56-8.58-4.37-5.66,5.66-5.66,5.66l8.74,13.59s7.28,10.36,23.46-.16S231,202.6,231,202.6s3.88,13.27,14.08,9.87S256,212.8,256,212.8c2.27,4.53-4,14.24-4,14.24-3.4,12.95,7,9.71,7,9.71s10.15-8.58,3.19-13.11-1.62-10-1.62-10c3.87-2,6.26-1.78,7.74-.86,1.73,1.08,1.83,3.37.82,5.14-1.13,2,.22,6.84,1,9.3a3.77,3.77,0,0,1-.21,2.8c-2.83,5.88,3.28,5.31,3.28,5.31s8.94-8.52,4.65-12.23,0-6.89,0-6.89c4.16-5.41,7-1.57,8.55,1.73A4.34,4.34,0,0,1,285.2,223c-3.11,2.69-7.18,7.87,2.34,11.26,13.34,4.75,4.12-14.39,4.12-14.39-0.25-7.83,2.14-8.16,4.34-6.87a7.1,7.1,0,0,1,3.31,6.45c-0.74,18.65,3.38,17.42,3.38,17.42,9.07,4,5-12.09,2.83-19a4.51,4.51,0,0,1,1.65-5l4.25-3.12s9.19-27.56,21.13-26.64,26.18-6.19,26.18-6.19c9.65,0.7,8.26-8.87,8.26-8.87S377.55,150.5,367,152.8Zm-122.18-.49c-30.32,12.4-31.24,5.51-43.18-9.65S209,110.5,209,110.5c28.48-21.13,36.75-11,50.07,0S244.8,152.31,244.8,152.31Zm42.74,34.91s-2.31,3.22-8.74-6.43-7.35-3.89-7.35-3.89-2.83,9.87-8.77,8.49-5.48-9.19,6-41.35c0,0,5.51-12.86,9.65-4.13,0,0,3.7,10.57,9.2,15.62S305,181.25,287.54,187.22Zm50.06-39c-4.59,11-22.51,11.94-27.1,7.35s-10.57-15.16-23-27.09,7.8-25.74,7.8-25.74,17.46-14.7,37.21,3.22S342.19,137.15,337.6,148.17Z"/><path class="cls-2" d="M235.2,229.43s-5.56-2.09,1.85-7,6,1.39,6,1.39,1.11,9.5-4.89,7.65S235.2,229.43,235.2,229.43Z"/><path class="cls-2" d="M195.53,211a5.54,5.54,0,0,1-1.19-3.43c-0.11-6,.51-21.14,10.74-6.36,12.51,18.07,12.28,21.78,12.28,21.78s-0.64,21.21,5.4,24.46a3.33,3.33,0,0,1,1.38,1.5c1.55,3.15,6.54,11.28,15.23,6.94,0,0,3.66-4.4-1.18-5.1s1.64-13.44,8.59-4.17c0,0,5.79,3.71,2.78,12.51,0,0,5.79,4.63,5.79-2.78s-1-14.83,3.57-12,3.38,12.28,3.38,12.28,5.4,11.2,10.23,4c2.88-4.31,1.65-6,.19-6.75a4.29,4.29,0,0,1-2.41-3.94c0.07-2.87,1.07-6.54,5.65-7,7.65-.7,7.18,9.27,7.18,9.27s-3,8.11,2.55,8.34,7.65-6.72,7.65-6.72,1.49-8.21,5-8.89a1.18,1.18,0,0,1,1.39,1c0.5,3.49,2.68,15.63,8.46,10.45s9.37-16.43,12.32-18.57A3.67,3.67,0,0,0,322,235c0.41-6.57,2.25-23.94,10.5-26a5.73,5.73,0,0,0,3.15-1.85c2.37-2.88,7.43-7.68,9.18,1.43,2.32,12-1.62,43.56-5.79,47.26-3.5,3.11-27.44,25.85-35,33a8.18,8.18,0,0,1-5.51,2.26c-9,.16-35,0.17-56.51-4.37A6,6,0,0,1,238.1,284c-2.81-4.64-9.84-15-16.83-15.24a5.14,5.14,0,0,1-3.87-2,45.9,45.9,0,0,0-14.86-11.86s-6.72-5.79-.46-14.83C202.07,240.09,203.56,220.73,195.53,211Z"/></svg>