<svg id="Layer_1" data-name="Layer 1" xmlns="http://www.w3.org/2000/svg" viewBox="0 0 651.44 203.73"><defs><style>.cls-1{fill:#e1c22e;}</style></defs><title>yellow_goonies</title><path class="cls-1" d="M239.11,277.86l32.55,2.39s3.74-.33,3.74-9.56c0,0,2.6,0,2.6-6v-34.5s-0.25-2.24-27.27-24.89a7.58,7.58,0,0,0-8,.65c-4,2.91-30.68-1.49-30.68-1.49l-39.37-1.59-20.25,27.67s4.43,102.32,1.89,126.42c0,0,22.39,18,19.86,23h81.58s7.2-18.71,13.55-20c0,0-.28-11.9-2.09-33,0,0-1.25-2.56,10.75-1.08V299.89s-45-.9-57.66,2.06c0,0-2,25.84-.19,27.65,0,0,10.27-2.47,11.92-1.81,0,0,3.57,2.3.94,18.27,0,0-17,5.27-31,0l0.32-87.72,8.39-10.2,23.86,2.3s5.26,4.28,4.11,8.72S239.11,277.86,239.11,277.86Z" transform="translate(-152.46 -179)"/><path class="cls-1" d="M384.21,274l-16-16.79c-13.33,1.81-50.69-2.3-50.69-2.3C313.27,265.09,297,274,297,274c1.14,43.55-7.6,83.55-7.6,83.55l15.51,22.76c11-7.18,64.63,4,63.34,2.23s16-21.54,16-21.54C377.57,329.09,384.21,274,384.21,274ZM340.59,348c-11.19,1.48-15.47-1.48-15.47-1.48s-3.46-24.52.66-30.78,0.66-15.31,5.6-26.83c0,0,17.61-2.63,18.43,0s1.15,50,4,54.64C353.76,343.59,351.79,346.55,340.59,348Z" transform="translate(-152.46 -179)"/><path class="cls-1" d="M484,274l-16-16.79c-13.33,1.81-50.69-2.3-50.69-2.3-4.28,10.2-20.57,19.09-20.57,19.09,1.14,43.55-7.6,83.55-7.6,83.55l15.51,22.76c13.1-5.31,64.63,4,63.34,2.23S484,361,484,361C477.36,329.09,484,274,484,274ZM440.38,348c-11.19,1.48-15.47-1.48-15.47-1.48s-1.12-24,.66-30.78a176,176,0,0,0,5.6-26.83s17.61-2.63,18.43,0,1.15,50,4,54.64C453.55,343.59,451.58,346.55,440.38,348Z" transform="translate(-152.46 -179)"/><path class="cls-1" d="M497,377h34.84L530,319h4.49L558,376.27V380h32.79s-4.33-73.46-1.53-77.12,0.86-45.79,4.52-48.07-33.39,0-33.39,0,4.74,63.45-.86,56.77S532,262.1,534.11,254.87l-38.56,2s5.17,98.37,3.23,103.54S497,377,497,377Z" transform="translate(-152.46 -179)"/><path class="cls-1" d="M610,289h29s-1.3,59.18,2.15,68.23c0,0,1.73,18.14,1.3,22S610,381.87,610,381.87V289Z" transform="translate(-152.46 -179)"/><path class="cls-1" d="M697.63,330c-6.25-.22-4.09,5.68-4.09,5.68,5,2.66,2.37,10.28,2.37,10.28l-22.62,2s-2.8-24.72,1.29-24.94,35.12-15.41,35.76-16.7,1.29-30.51,1.29-30.51L699.78,259H669.19l-20.25,12.42,1.72,93.47,17.67,13.66,33.61-1.68,9.69-8.38-0.86-43.29S703.87,330.17,697.63,330Zm-21.76-51.71c5.82-5.39,15.3-3,15.3-3,0,3,4.74,21.54,4.74,21.54l-20,7.11C672,306.9,670.05,283.63,675.87,278.25Z" transform="translate(-152.46 -179)"/><path class="cls-1" d="M722.37,268.5s7.53-8.66,10.76-8.84,31.45-2.32,49.33-2.76c0,0,8.61,7.75,18.31,9.48,0,0,4.74,28.62,2.58,36.62h-35l0.52-18.07s0.22-6.36-7.76-4c0,0-1.72.16-1.94,7.27S759,306.93,759,306.93s42.44,9.65,43.3,12.25,1.63,48.7,1.63,48.7l-20.59,10.77-44.69,1.65L720,367.65V337.41l37.18,0.94,0.46,16.8s2.6,6.89,9.28.65l-1.72-25.64L724.28,318.6Z" transform="translate(-152.46 -179)"/><path class="cls-1" d="M275.36,195h9.74a1,1,0,0,1,.49.35c0.72,0.63,2.43,3.76,2.73,18.32,0.33,15.91.09,28.38,0,31.62a0.72,0.72,0,0,0,.81.71h19.39a0.7,0.7,0,0,0,.81-0.71L306.57,198s1.18-2.24,2.82-2.05c1.37,0.16,8.27-.18,10.53-0.3a0.8,0.8,0,0,0,.76-0.74L321.62,180a0.93,0.93,0,0,0-.8-1H275.36c-0.45,0-.36.65-0.36,1.09v14.47C275,195,274.91,195,275.36,195Z" transform="translate(-152.46 -179)"/><path class="cls-1" d="M330.83,182h21.33a0.32,0.32,0,0,0-.16.08v24s0,0.05,0,.07c0.4,0.34,6,4.46,8-.64V182.08a0.87,0.87,0,0,1,.42-0.08h21.22a0.1,0.1,0,0,1,.11.09l-0.21,66.79a0.12,0.12,0,0,1-.11.12h-21a0.13,0.13,0,0,1-.11-0.13l0.89-25.34s-3.51-8-9.19-.13a0.12,0.12,0,0,0,0,.07L352.37,246c0,0.06,0,0-.11,0h-24c-0.06,0-.11.11-0.11,0l1-64h1.65Z" transform="translate(-152.46 -179)"/><path class="cls-1" d="M413.95,224.38c1.52,0.4,1.38,2.5,1,4.15a2.85,2.85,0,0,1-2.56,2.2c-3.08.24-8.95,0.58-11.28-.17-2.53-.82-1.51-8.6-0.94-12a2.85,2.85,0,0,1,1.68-2.14l18.21-8a2.87,2.87,0,0,0,1.72-2.57l0.32-16.12a2.87,2.87,0,0,0-.65-1.87l-4-4.89a2.85,2.85,0,0,0-2.22-1H398.48a2.85,2.85,0,0,0-1.6.47l-8.56,5.69a2.9,2.9,0,0,0-1.33,2.37v48.13a2.91,2.91,0,0,0,1,2.16c2.47,2.15,8.83,7.49,9.21,6.27s14.94-1.35,19.56-1.34a2.86,2.86,0,0,0,2.27-1.12l2.29-2.93a2.89,2.89,0,0,0,.62-1.75V223.07a2.88,2.88,0,0,0-3.26-2.84c-1,.13-2.05.3-3.06,0.54C412.83,221.43,411.38,223.71,413.95,224.38Zm-1.8-33.61a17,17,0,0,1,2.13,9.78,2.84,2.84,0,0,1-2.37,2.51,75.52,75.52,0,0,0-11,2.7c-2.82.86,0-12.07,0-12.07-0.95-4.29,5.68-4.52,8.84-4.39A2.79,2.79,0,0,1,412.14,190.76Z" transform="translate(-152.46 -179)"/><circle class="cls-1" cx="470.51" cy="90.72" r="1.74"/><circle class="cls-1" cx="463.01" cy="86.39" r="1.68"/><ellipse class="cls-1" cx="629.66" cy="263.88" rx="2.41" ry="1.51" transform="translate(-202.96 143.93) rotate(-27.7)"/><path class="cls-1" d="M637.77,270.61c-2.22-.71-0.22-3.5-0.22-3.5,4.13-3.58,2-7.94.55-10.08a4.07,4.07,0,0,1-.59-2.89c0.42-3.19-2.43-5.15-2.43-5.15a18.56,18.56,0,0,0-17-.47,3.77,3.77,0,0,1-2.12.3c-8.86-1.2-11.91,1.85-12.86,3.36a3.7,3.7,0,0,0-.48,1.27A32.51,32.51,0,0,0,607,276.3a7.64,7.64,0,0,0,6.46,3.7h6.26c0.25,0,.49-0.16.74-0.18,7.32-.85,16.25-1.61,15.19-3.25,0.14-1.18-13.36-.88-16.31-0.3a0.66,0.66,0,0,1-.37-0.14l-5.82-2.61a5.25,5.25,0,0,1-3.61-4.64,3.64,3.64,0,0,0-.41-1.59c-1.76-3.06-7.91-15.31,6.33-15.93,16.28-.71,16.28,1.5,16.28,1.5s6.45,7.56,3.85,10.22a3.33,3.33,0,0,0-.83,2.54c0.12,2,.1,4.82-1,5.28a1.81,1.81,0,0,0-.73.64c-1.47,2.05-2.59,4.34-.15,5l2.7,0.69C639.18,276.62,640,271.33,637.77,270.61Z" transform="translate(-152.46 -179)"/></svg>